<svg width="40" height="49" viewBox="0 0 40 49" fill="none" xmlns="http://www.w3.org/2000/svg">
<path d="M27.9736 37.7663L32.7393 33.0424C36.1178 29.6813 38.0157 25.1244 38.0157 20.3732C38.0157 15.6219 36.1178 11.065 32.7393 7.70395C29.3601 4.34652 24.7779 2.46045 20 2.46045C15.2222 2.46045 10.6399 4.34652 7.26074 7.70395C3.88219 11.065 1.98438 15.6219 1.98438 20.3732C1.98438 25.1244 3.88219 29.6813 7.26074 33.0424L20 45.705" stroke="#AB9583" stroke-width="3" stroke-linecap="square" stroke-linejoin="round"/>
<path d="M20 27.0719C24.0246 27.0719 27.2871 23.829 27.2871 19.8286C27.2871 15.8282 24.0246 12.5853 20 12.5853C15.9754 12.5853 12.7129 15.8282 12.7129 19.8286C12.7129 23.829 15.9754 27.0719 20 27.0719Z" stroke="#AB9583" stroke-width="3" stroke-linecap="square" stroke-linejoin="round"/>
</svg>
