<svg width="40" height="40" viewBox="0 0 40 40" fill="none" xmlns="http://www.w3.org/2000/svg">
<path d="M2.92322 39.6484V17.7401C2.92322 15.7508 3.80779 13.8645 5.3372 12.5924L11.1805 7.73222L15.7184 3.95783C18.4456 1.68951 21.5553 1.68951 24.2816 3.95783L34.6629 12.5924C36.1923 13.8645 37.0768 15.7508 37.0768 17.7401V30.5626C37.0768 34.7875 34.6061 37.2582 30.3813 37.2582H11.0676V29.2278V20.3364C11.0676 17.6541 12.876 15.8458 15.5582 15.8458H15.5582C18.2405 15.8458 20.0488 17.6541 20.0488 20.3364V30.5911V20.3364C20.0488 17.6541 21.8572 15.8458 24.5395 15.8458H24.5395C27.2217 15.8458 29.0301 17.6541 29.0301 20.3364V30.2496" stroke="white" stroke-width="4" stroke-miterlimit="10"/>
</svg>
