<svg width="128" height="128" viewBox="0 0 128 128" fill="none" xmlns="http://www.w3.org/2000/svg">
<path d="M52.5 42.5C52.5 44.1576 51.8415 45.7473 50.6694 46.9194C49.4973 48.0915 47.9076 48.75 46.25 48.75H40V36.25H46.25C47.9076 36.25 49.4973 36.9085 50.6694 38.0806C51.8415 39.2527 52.5 40.8424 52.5 42.5V42.5Z" stroke="#B39B84" stroke-width="2.5" stroke-linejoin="round"/>
<path d="M40 48.75V57.5" stroke="#B39B84" stroke-width="2.5" stroke-linejoin="round"/>
<path d="M60 30H32.5C31.1193 30 30 31.1193 30 32.5V60C30 61.3807 31.1193 62.5 32.5 62.5H60C61.3807 62.5 62.5 61.3807 62.5 60V32.5C62.5 31.1193 61.3807 30 60 30Z" stroke="#B39B84" stroke-width="2.5" stroke-linejoin="round"/>
<path d="M45 62.5V97.5" stroke="#B39B84" stroke-width="2.5" stroke-linejoin="round"/>
<path d="M91.25 77.5L96.4996 81.7505C96.8102 81.9832 97.0623 82.285 97.236 82.6321C97.4096 82.9791 97.5 83.3619 97.5 83.75V88.75C97.5 89.413 97.2366 90.0489 96.7677 90.5177C96.2989 90.9866 95.663 91.25 95 91.25H57.5C56.837 91.25 56.2011 90.9866 55.7323 90.5177C55.2634 90.0489 55 89.413 55 88.75V83.75C55 83.3619 55.0904 82.9792 55.264 82.6321C55.4376 82.285 55.6898 81.9832 56.0004 81.7505L61.25 77.5H91.25Z" stroke="#15141B" stroke-width="2.5" stroke-linejoin="round"/>
<path d="M95 91.25V93.75C95 94.413 94.7366 95.0489 94.2677 95.5177C93.7989 95.9866 93.163 96.25 92.5 96.25H90C89.337 96.25 88.7011 95.9866 88.2323 95.5177C87.7634 95.0489 87.5 94.413 87.5 93.75V91.25" stroke="#15141B" stroke-width="2.5" stroke-linejoin="round"/>
<path d="M57.5 91.25V93.75C57.5 94.413 57.7634 95.0489 58.2323 95.5177C58.7011 95.9866 59.337 96.25 60 96.25H62.5C63.163 96.25 63.7989 95.9866 64.2677 95.5177C64.7366 95.0489 65 94.413 65 93.75V91.25" stroke="#15141B" stroke-width="2.5" stroke-linejoin="round"/>
<path d="M92.5 83.75H85V87.5H92.5V83.75Z" stroke="#15141B" stroke-width="2.5" stroke-linejoin="round"/>
<path d="M67.5 83.75H60V87.5H67.5V83.75Z" stroke="#15141B" stroke-width="2.5" stroke-linejoin="round"/>
<path d="M71.25 83.75H81.25" stroke="#15141B" stroke-width="2.5" stroke-linejoin="round"/>
<path d="M71.25 87.5H81.25" stroke="#15141B" stroke-width="2.5" stroke-linejoin="round"/>
<path d="M63.125 73.75L61.25 77.5H58.75C57.2248 77.5 56.25 76.825 56.25 73.75H63.125ZM63.125 73.75L65.5627 68.8868C65.7698 68.4703 66.0889 68.1199 66.4841 67.8749C66.8794 67.63 67.3352 67.5001 67.8003 67.5H84.6997C85.1648 67.5001 85.6206 67.63 86.0159 67.8749C86.4111 68.1199 86.7302 68.4703 86.9373 68.8868L89.375 73.75L91.25 77.5H93.75C95.2752 77.5 96.25 76.825 96.25 73.75H89.375" stroke="#15141B" stroke-width="2.5" stroke-linejoin="round"/>
</svg>
