<svg width="128" height="128" viewBox="0 0 128 128" fill="none" xmlns="http://www.w3.org/2000/svg">
<path d="M60 33.75C60 33.0083 60.2199 32.2833 60.632 31.6666C61.044 31.0499 61.6297 30.5693 62.3149 30.2855C63.0002 30.0016 63.7542 29.9274 64.4816 30.0721C65.209 30.2168 65.8772 30.5739 66.4016 31.0984C66.9261 31.6228 67.2832 32.291 67.4279 33.0184C67.5726 33.7458 67.4984 34.4998 67.2145 35.185C66.9307 35.8703 66.4501 36.456 65.8334 36.868C65.2167 37.2801 64.4917 37.5 63.75 37.5V41.25" stroke="#B39B84" stroke-width="2.5" stroke-linejoin="round"/>
<path d="M50.5498 48.5875L63.7498 41.25L76.9498 48.5875" stroke="#B39B84" stroke-width="2.5" stroke-linejoin="round"/>
<path d="M53.7378 52.5L63.7503 48.05L73.7628 52.5H73.774" stroke="#B39B84" stroke-width="2.5" stroke-linejoin="round"/>
<path d="M88.7503 53.75C84.3961 59.4826 82.185 66.5581 82.5003 73.75" stroke="#15141B" stroke-width="2.5" stroke-linejoin="round"/>
<path d="M38.75 53.75C43.1042 59.4826 45.3153 66.5581 45 73.75" stroke="#15141B" stroke-width="2.5" stroke-linejoin="round"/>
<path d="M77.5 47.5C76.2774 50.115 74.3344 52.3272 71.899 53.877C69.4636 55.4268 66.6367 56.25 63.75 56.25C60.8633 56.25 58.0364 55.4268 55.601 53.877C53.1656 52.3272 51.2226 50.115 50 47.5L38.75 53.75L30 71.25L38.75 80L45 73.75V97.5H82.5V73.75L88.75 80L97.5 71.25L88.75 53.75L77.5 47.5Z" stroke="#15141B" stroke-width="2.5" stroke-linejoin="round"/>
</svg>
