<svg width="128" height="128" viewBox="0 0 128 128" fill="none" xmlns="http://www.w3.org/2000/svg">
<path d="M72.5 35H55C53.6193 35 52.5 36.1193 52.5 37.5V45C52.5 46.3807 53.6193 47.5 55 47.5H72.5C73.8807 47.5 75 46.3807 75 45V37.5C75 36.1193 73.8807 35 72.5 35Z" stroke="#15141B" stroke-width="2.5" stroke-linecap="round" stroke-linejoin="round"/>
<path d="M87.5 65V92.5C87.5002 93.1567 87.371 93.8069 87.1198 94.4136C86.8686 95.0203 86.5003 95.5716 86.0359 96.0359C85.5716 96.5003 85.0203 96.8686 84.4136 97.1198C83.8069 97.371 83.1567 97.5002 82.5 97.5H45C44.3433 97.5002 43.6931 97.371 43.0864 97.1198C42.4797 96.8686 41.9284 96.5003 41.4641 96.0359C40.9997 95.5716 40.6314 95.0203 40.3802 94.4136C40.129 93.8069 39.9998 93.1567 40 92.5V55" stroke="#B39B84" stroke-width="2.5" stroke-linecap="round" stroke-linejoin="round"/>
<path d="M40 49.9994V35C40.0001 33.6739 40.5269 32.4022 41.4645 31.4645C42.4022 30.5269 43.6739 30.0001 45 30H82.5C83.8261 30.0001 85.0978 30.5269 86.0355 31.4645C86.9731 32.4022 87.4999 33.6739 87.5 35V60" stroke="#15141B" stroke-width="2.5" stroke-linecap="round" stroke-linejoin="round"/>
<path d="M40 55L87.5 65L71.25 76.25L40 55Z" stroke="#B39B84" stroke-width="2.5" stroke-linecap="round" stroke-linejoin="round"/>
</svg>
