<svg width="128" height="128" viewBox="0 0 128 128" fill="none" xmlns="http://www.w3.org/2000/svg">
<path d="M30 82.5C33.0664 82.5 33.0664 85 36.134 85C39.1992 85 39.1992 82.5 42.2631 82.5C45.3296 82.5 45.3296 85 48.396 85C51.4636 85 51.4636 82.5 54.5312 82.5C57.6001 82.5 57.6001 85 60.6677 85C63.7353 85 63.7354 82.5 66.803 82.5C69.8706 82.5 69.8706 85 72.9395 85C76.0059 85 76.0059 82.5 79.0735 82.5C82.1435 82.5 82.1435 85 85.2136 85C88.2849 85 88.2849 82.5 91.3562 82.5C94.4287 82.5 94.4287 85 97.5 85" stroke="#B39B84" stroke-width="2.5" stroke-linejoin="round"/>
<path d="M30 90C33.0664 90 33.0664 92.5 36.134 92.5C39.1992 92.5 39.1992 90 42.2631 90C45.3296 90 45.3296 92.5 48.396 92.5C51.4636 92.5 51.4636 90 54.5312 90C57.6001 90 57.6001 92.5 60.6677 92.5C63.7353 92.5 63.7354 90 66.803 90C69.8706 90 69.8706 92.5 72.9395 92.5C76.0059 92.5 76.0059 90 79.0735 90C82.1435 90 82.1435 92.5 85.2136 92.5C88.2849 92.5 88.2849 90 91.3562 90C94.4287 90 94.4287 92.5 97.5 92.5" stroke="#B39B84" stroke-width="2.5" stroke-linejoin="round"/>
<path d="M56.25 78.75V52.1522C56.2501 50.7337 55.9484 49.3313 55.365 48.0384L50.8094 37.9455L50.813 37.9505C50.3438 36.907 49.531 36.0558 48.5101 35.5391C47.4893 35.0223 46.3221 34.8713 45.2033 35.1111C44.0845 35.3508 43.0818 35.9669 42.3624 36.8566C41.6429 37.7463 41.2503 38.8558 41.25 40V52.5" stroke="#15141B" stroke-width="2.5" stroke-linejoin="round"/>
<path d="M81.25 78.75V52.1522C81.2501 50.7337 80.9484 49.3313 80.365 48.0384L75.8094 37.9455L75.813 37.9505C75.3438 36.907 74.531 36.0558 73.5101 35.5391C72.4893 35.0223 71.3221 34.8713 70.2033 35.1111C69.0845 35.3508 68.0818 35.9669 67.3624 36.8566C66.6429 37.7463 66.2503 38.8558 66.25 40V52.5" stroke="#15141B" stroke-width="2.5" stroke-linejoin="round"/>
<path d="M52.5 56.25H30" stroke="#15141B" stroke-width="2.5" stroke-linejoin="round"/>
<path d="M77.5 56.25H60" stroke="#15141B" stroke-width="2.5" stroke-linejoin="round"/>
<path d="M97.5 56.25H85" stroke="#15141B" stroke-width="2.5" stroke-linejoin="round"/>
<path d="M56.25 65H81.25" stroke="#15141B" stroke-width="2.5" stroke-linejoin="round"/>
<path d="M56.25 73.75H81.25" stroke="#15141B" stroke-width="2.5" stroke-linejoin="round"/>
</svg>
