<svg width="128" height="128" viewBox="0 0 128 128" fill="none" xmlns="http://www.w3.org/2000/svg">
<path d="M75.5 43.5H65.5V49.75H75.5V43.5Z" stroke="#B39B84" stroke-width="2.5" stroke-linejoin="round"/>
<path d="M75.5 49.75H78C80.6522 49.75 83.1957 50.8036 85.0711 52.6789C86.9464 54.5543 88 57.0978 88 59.75H53C53 58.4368 53.2586 57.1364 53.7611 55.9231C54.2636 54.7098 55.0002 53.6074 55.9288 52.6788C56.8574 51.7502 57.9598 51.0136 59.1731 50.5111C60.3864 50.0086 61.6868 49.75 63 49.75H65.5" stroke="#B39B84" stroke-width="2.5" stroke-linejoin="round"/>
<path d="M68 43.5V41C67.9984 39.6744 67.4711 38.4036 66.5337 37.4662C65.5964 36.5289 64.3256 36.0016 63 36H33" stroke="#B39B84" stroke-width="2.5" stroke-linejoin="round"/>
<path d="M33 31H63C65.6512 31.003 68.193 32.0576 70.0677 33.9323C71.9424 35.807 72.997 38.3488 73 41V43.5" stroke="#B39B84" stroke-width="2.5" stroke-linejoin="round"/>
<path d="M70.5 66C71.1904 66 71.75 65.4404 71.75 64.75C71.75 64.0596 71.1904 63.5 70.5 63.5C69.8096 63.5 69.25 64.0596 69.25 64.75C69.25 65.4404 69.8096 66 70.5 66Z" fill="#15141B"/>
<path d="M76.75 66C77.4404 66 78 65.4404 78 64.75C78 64.0596 77.4404 63.5 76.75 63.5C76.0596 63.5 75.5 64.0596 75.5 64.75C75.5 65.4404 76.0596 66 76.75 66Z" fill="#15141B"/>
<path d="M64.25 66C64.9404 66 65.5 65.4404 65.5 64.75C65.5 64.0596 64.9404 63.5 64.25 63.5C63.5596 63.5 63 64.0596 63 64.75C63 65.4404 63.5596 66 64.25 66Z" fill="#15141B"/>
<path d="M77.375 71C78.0654 71 78.625 70.4404 78.625 69.75C78.625 69.0596 78.0654 68.5 77.375 68.5C76.6846 68.5 76.125 69.0596 76.125 69.75C76.125 70.4404 76.6846 71 77.375 71Z" fill="#15141B"/>
<path d="M63.625 71C64.3154 71 64.875 70.4404 64.875 69.75C64.875 69.0596 64.3154 68.5 63.625 68.5C62.9346 68.5 62.375 69.0596 62.375 69.75C62.375 70.4404 62.9346 71 63.625 71Z" fill="#15141B"/>
<path d="M78 76C78.6904 76 79.25 75.4404 79.25 74.75C79.25 74.0596 78.6904 73.5 78 73.5C77.3096 73.5 76.75 74.0596 76.75 74.75C76.75 75.4404 77.3096 76 78 76Z" fill="#15141B"/>
<path d="M63 76C63.6904 76 64.25 75.4404 64.25 74.75C64.25 74.0596 63.6904 73.5 63 73.5C62.3096 73.5 61.75 74.0596 61.75 74.75C61.75 75.4404 62.3096 76 63 76Z" fill="#15141B"/>
<path d="M78.625 81C79.3154 81 79.875 80.4404 79.875 79.75C79.875 79.0596 79.3154 78.5 78.625 78.5C77.9346 78.5 77.375 79.0596 77.375 79.75C77.375 80.4404 77.9346 81 78.625 81Z" fill="#15141B"/>
<path d="M62.375 81C63.0654 81 63.625 80.4404 63.625 79.75C63.625 79.0596 63.0654 78.5 62.375 78.5C61.6846 78.5 61.125 79.0596 61.125 79.75C61.125 80.4404 61.6846 81 62.375 81Z" fill="#15141B"/>
<path d="M79.25 86C79.9404 86 80.5 85.4404 80.5 84.75C80.5 84.0596 79.9404 83.5 79.25 83.5C78.5596 83.5 78 84.0596 78 84.75C78 85.4404 78.5596 86 79.25 86Z" fill="#15141B"/>
<path d="M61.75 86C62.4404 86 63 85.4404 63 84.75C63 84.0596 62.4404 83.5 61.75 83.5C61.0596 83.5 60.5 84.0596 60.5 84.75C60.5 85.4404 61.0596 86 61.75 86Z" fill="#15141B"/>
<path d="M79.875 91C80.5654 91 81.125 90.4404 81.125 89.75C81.125 89.0596 80.5654 88.5 79.875 88.5C79.1846 88.5 78.625 89.0596 78.625 89.75C78.625 90.4404 79.1846 91 79.875 91Z" fill="#15141B"/>
<path d="M61.125 91C61.8154 91 62.375 90.4404 62.375 89.75C62.375 89.0596 61.8154 88.5 61.125 88.5C60.4346 88.5 59.875 89.0596 59.875 89.75C59.875 90.4404 60.4346 91 61.125 91Z" fill="#15141B"/>
<path d="M80.5 96C81.1904 96 81.75 95.4404 81.75 94.75C81.75 94.0596 81.1904 93.5 80.5 93.5C79.8096 93.5 79.25 94.0596 79.25 94.75C79.25 95.4404 79.8096 96 80.5 96Z" fill="#15141B"/>
<path d="M60.5 96C61.1904 96 61.75 95.4404 61.75 94.75C61.75 94.0596 61.1904 93.5 60.5 93.5C59.8096 93.5 59.25 94.0596 59.25 94.75C59.25 95.4404 59.8096 96 60.5 96Z" fill="#15141B"/>
<path d="M83 66C83.6904 66 84.25 65.4404 84.25 64.75C84.25 64.0596 83.6904 63.5 83 63.5C82.3096 63.5 81.75 64.0596 81.75 64.75C81.75 65.4404 82.3096 66 83 66Z" fill="#15141B"/>
<path d="M85.2923 69.75C85.2924 69.5026 85.2191 69.2607 85.0818 69.055C84.9444 68.8492 84.7491 68.6888 84.5205 68.5941C84.292 68.4993 84.0405 68.4745 83.7978 68.5228C83.5551 68.571 83.3323 68.6901 83.1573 68.8651C82.9824 69.04 82.8633 69.2629 82.815 69.5055C82.7668 69.7482 82.7916 69.9997 82.8863 70.2283C82.9811 70.4568 83.1415 70.6521 83.3472 70.7895C83.553 70.9269 83.7949 71.0001 84.0423 71C84.3737 70.9998 84.6915 70.8681 84.9259 70.6337C85.1603 70.3993 85.2921 70.0815 85.2923 69.75V69.75Z" fill="#15141B"/>
<path d="M86.3327 74.75C86.3326 74.5029 86.2592 74.2614 86.1218 74.056C85.9845 73.8506 85.7892 73.6906 85.5609 73.5961C85.3326 73.5017 85.0813 73.4771 84.839 73.5254C84.5967 73.5737 84.3741 73.6928 84.1995 73.8676C84.0248 74.0424 83.9059 74.2651 83.8579 74.5075C83.8098 74.7499 83.8347 75.0011 83.9293 75.2293C84.024 75.4576 84.1843 75.6526 84.3898 75.7898C84.5953 75.927 84.8369 76.0001 85.084 76C85.2481 76 85.4105 75.9676 85.5621 75.9048C85.7137 75.8419 85.8514 75.7498 85.9674 75.6337C86.0833 75.5176 86.1753 75.3799 86.238 75.2282C86.3007 75.0766 86.3329 74.9141 86.3327 74.75V74.75Z" fill="#15141B"/>
<path d="M86.125 81C86.8154 81 87.375 80.4404 87.375 79.75C87.375 79.0596 86.8154 78.5 86.125 78.5C85.4346 78.5 84.875 79.0596 84.875 79.75C84.875 80.4404 85.4346 81 86.125 81Z" fill="#15141B"/>
<path d="M88.416 84.75C88.416 84.5027 88.3427 84.261 88.2053 84.0554C88.0679 83.8498 87.8726 83.6896 87.6441 83.595C87.4156 83.5005 87.1642 83.4758 86.9217 83.5241C86.6792 83.5724 86.4565 83.6916 86.2817 83.8666C86.107 84.0415 85.988 84.2644 85.9399 84.5069C85.8918 84.7495 85.9167 85.0008 86.0115 85.2292C86.1063 85.4576 86.2668 85.6527 86.4725 85.7899C86.6782 85.9271 86.92 86.0003 87.1673 86C87.4986 85.9997 87.8162 85.8679 88.0504 85.6335C88.2846 85.3991 88.4161 85.0813 88.416 84.75V84.75Z" fill="#15141B"/>
<path d="M89.459 89.75C89.459 89.5028 89.3857 89.2612 89.2484 89.0557C89.1111 88.8501 88.916 88.6899 88.6876 88.5953C88.4593 88.5006 88.208 88.4758 87.9656 88.5239C87.7232 88.5721 87.5004 88.691 87.3255 88.8657C87.1507 89.0404 87.0315 89.263 86.9832 89.5054C86.9348 89.7477 86.9594 89.999 87.0538 90.2275C87.1482 90.4559 87.3082 90.6512 87.5136 90.7887C87.719 90.9262 87.9605 90.9997 88.2077 91C88.372 91.0001 88.5346 90.9679 88.6864 90.9051C88.8382 90.8424 88.9761 90.7503 89.0923 90.6342C89.2085 90.5181 89.3007 90.3803 89.3636 90.2286C89.4266 90.0769 89.4589 89.9142 89.459 89.75Z" fill="#15141B"/>
<path d="M89.25 96C89.9404 96 90.5 95.4404 90.5 94.75C90.5 94.0596 89.9404 93.5 89.25 93.5C88.5596 93.5 88 94.0596 88 94.75C88 95.4404 88.5596 96 89.25 96Z" fill="#15141B"/>
<path d="M58 66C58.6904 66 59.25 65.4404 59.25 64.75C59.25 64.0596 58.6904 63.5 58 63.5C57.3096 63.5 56.75 64.0596 56.75 64.75C56.75 65.4404 57.3096 66 58 66Z" fill="#15141B"/>
<path d="M55.7075 69.75C55.7074 69.5026 55.7807 69.2607 55.9181 69.055C56.0554 68.8492 56.2507 68.6888 56.4793 68.5941C56.7078 68.4993 56.9593 68.4745 57.202 68.5228C57.4447 68.571 57.6676 68.6901 57.8425 68.8651C58.0174 69.04 58.1365 69.2629 58.1848 69.5055C58.233 69.7482 58.2082 69.9997 58.1135 70.2283C58.0188 70.4568 57.8584 70.6521 57.6526 70.7895C57.4468 70.9269 57.2049 71.0001 56.9575 71C56.6261 70.9998 56.3082 70.8681 56.0738 70.6337C55.8395 70.3993 55.7077 70.0815 55.7075 69.75V69.75Z" fill="#15141B"/>
<path d="M54.6675 74.75C54.6676 74.5029 54.741 74.2614 54.8784 74.056C55.0157 73.8506 55.211 73.6906 55.4393 73.5961C55.6676 73.5017 55.9189 73.4771 56.1612 73.5254C56.4035 73.5737 56.6261 73.6928 56.8007 73.8676C56.9754 74.0424 57.0943 74.2651 57.1423 74.5075C57.1904 74.7499 57.1655 75.0011 57.0709 75.2293C56.9762 75.4576 56.8159 75.6526 56.6104 75.7898C56.4049 75.927 56.1633 76.0001 55.9162 76C55.7521 76 55.5897 75.9676 55.4381 75.9048C55.2865 75.8419 55.1488 75.7498 55.0329 75.6337C54.9169 75.5177 54.8249 75.3799 54.7622 75.2282C54.6995 75.0766 54.6673 74.9141 54.6675 74.75V74.75Z" fill="#15141B"/>
<path d="M54.875 81C55.5654 81 56.125 80.4404 56.125 79.75C56.125 79.0596 55.5654 78.5 54.875 78.5C54.1846 78.5 53.625 79.0596 53.625 79.75C53.625 80.4404 54.1846 81 54.875 81Z" fill="#15141B"/>
<path d="M52.584 84.75C52.584 84.5027 52.6573 84.261 52.7947 84.0554C52.9322 83.8498 53.1274 83.6896 53.3559 83.595C53.5844 83.5005 53.8358 83.4758 54.0783 83.5241C54.3208 83.5724 54.5435 83.6916 54.7183 83.8666C54.8931 84.0415 55.0121 84.2644 55.0601 84.5069C55.1082 84.7495 55.0833 85.0008 54.9885 85.2292C54.8937 85.4576 54.7333 85.6527 54.5275 85.7899C54.3218 85.9271 54.08 86.0003 53.8327 86C53.5014 85.9997 53.1838 85.8679 52.9496 85.6335C52.7155 85.3991 52.5839 85.0813 52.584 84.75V84.75Z" fill="#15141B"/>
<path d="M51.541 89.75C51.541 89.5028 51.6143 89.2612 51.7516 89.0557C51.8889 88.8501 52.084 88.6899 52.3123 88.5953C52.5407 88.5006 52.792 88.4758 53.0344 88.5239C53.2768 88.5721 53.4996 88.691 53.6745 88.8657C53.8493 89.0404 53.9685 89.263 54.0168 89.5054C54.0652 89.7477 54.0406 89.999 53.9462 90.2275C53.8518 90.4559 53.6918 90.6512 53.4864 90.7887C53.281 90.9262 53.0394 90.9997 52.7923 91C52.628 91.0001 52.4654 90.9679 52.3136 90.9051C52.1618 90.8424 52.0238 90.7503 51.9076 90.6342C51.7914 90.5181 51.6993 90.3803 51.6363 90.2286C51.5734 90.0769 51.5411 89.9142 51.541 89.75V89.75Z" fill="#15141B"/>
<path d="M51.75 96C52.4404 96 53 95.4404 53 94.75C53 94.0596 52.4404 93.5 51.75 93.5C51.0596 93.5 50.5 94.0596 50.5 94.75C50.5 95.4404 51.0596 96 51.75 96Z" fill="#15141B"/>
<path d="M70.5 71C71.1904 71 71.75 70.4404 71.75 69.75C71.75 69.0596 71.1904 68.5 70.5 68.5C69.8096 68.5 69.25 69.0596 69.25 69.75C69.25 70.4404 69.8096 71 70.5 71Z" fill="#15141B"/>
<path d="M70.5 76C71.1904 76 71.75 75.4404 71.75 74.75C71.75 74.0596 71.1904 73.5 70.5 73.5C69.8096 73.5 69.25 74.0596 69.25 74.75C69.25 75.4404 69.8096 76 70.5 76Z" fill="#15141B"/>
<path d="M70.5 81C71.1904 81 71.75 80.4404 71.75 79.75C71.75 79.0596 71.1904 78.5 70.5 78.5C69.8096 78.5 69.25 79.0596 69.25 79.75C69.25 80.4404 69.8096 81 70.5 81Z" fill="#15141B"/>
<path d="M70.5 86C71.1904 86 71.75 85.4404 71.75 84.75C71.75 84.0596 71.1904 83.5 70.5 83.5C69.8096 83.5 69.25 84.0596 69.25 84.75C69.25 85.4404 69.8096 86 70.5 86Z" fill="#15141B"/>
<path d="M70.5 91C71.1904 91 71.75 90.4404 71.75 89.75C71.75 89.0596 71.1904 88.5 70.5 88.5C69.8096 88.5 69.25 89.0596 69.25 89.75C69.25 90.4404 69.8096 91 70.5 91Z" fill="#15141B"/>
<path d="M70.5 96C71.1904 96 71.75 95.4404 71.75 94.75C71.75 94.0596 71.1904 93.5 70.5 93.5C69.8096 93.5 69.25 94.0596 69.25 94.75C69.25 95.4404 69.8096 96 70.5 96Z" fill="#15141B"/>
</svg>
