<svg width="128" height="128" viewBox="0 0 128 128" fill="none" xmlns="http://www.w3.org/2000/svg">
<path d="M87.5 35H70C68.6193 35 67.5 36.1193 67.5 37.5V45C67.5 46.3807 68.6193 47.5 70 47.5H87.5C88.8807 47.5 90 46.3807 90 45V37.5C90 36.1193 88.8807 35 87.5 35Z" stroke="#15141B" stroke-width="2.5" stroke-linecap="round" stroke-linejoin="round"/>
<path d="M57.5 35H40C38.6193 35 37.5 36.1193 37.5 37.5V45C37.5 46.3807 38.6193 47.5 40 47.5H57.5C58.8807 47.5 60 46.3807 60 45V37.5C60 36.1193 58.8807 35 57.5 35Z" stroke="#15141B" stroke-width="2.5" stroke-linecap="round" stroke-linejoin="round"/>
<path d="M97.5 67.5V92.5C97.5002 93.1567 97.371 93.8069 97.1198 94.4136C96.8686 95.0203 96.5003 95.5716 96.0359 96.0359C95.5716 96.5003 95.0203 96.8686 94.4136 97.1198C93.8069 97.371 93.1567 97.5002 92.5 97.5H35C34.3433 97.5002 33.6931 97.371 33.0864 97.1198C32.4797 96.8686 31.9284 96.5003 31.4641 96.0359C30.9997 95.5716 30.6314 95.0203 30.3802 94.4136C30.129 93.8069 29.9998 93.1567 30 92.5V55" stroke="#B39B84" stroke-width="2.5" stroke-linecap="round" stroke-linejoin="round"/>
<path d="M30 49.9994V35C30.0001 33.6739 30.5269 32.4022 31.4645 31.4645C32.4022 30.5269 33.6739 30.0001 35 30H92.5C93.8261 30.0001 95.0978 30.5269 96.0355 31.4645C96.9731 32.4022 97.4999 33.6739 97.5 35V62.5" stroke="#15141B" stroke-width="2.5" stroke-linecap="round" stroke-linejoin="round"/>
<path d="M30 55L97.5 67.5L78.75 78.75L30 55Z" stroke="#B39B84" stroke-width="2.5" stroke-linecap="round" stroke-linejoin="round"/>
</svg>
