<svg width="128" height="128" viewBox="0 0 128 128" fill="none" xmlns="http://www.w3.org/2000/svg">
<path d="M72.75 55.25C73.4404 55.25 74 54.6904 74 54C74 53.3096 73.4404 52.75 72.75 52.75C72.0596 52.75 71.5 53.3096 71.5 54C71.5 54.6904 72.0596 55.25 72.75 55.25Z" fill="#15141B"/>
<path d="M77.751 55.25C78.4413 55.25 79.001 54.6904 79.001 54C79.001 53.3096 78.4413 52.75 77.751 52.75C77.0606 52.75 76.501 53.3096 76.501 54C76.501 54.6904 77.0606 55.25 77.751 55.25Z" fill="#15141B"/>
<path d="M82.7524 55.25C83.4428 55.25 84.0024 54.6904 84.0024 54C84.0024 53.3096 83.4428 52.75 82.7524 52.75C82.0621 52.75 81.5024 53.3096 81.5024 54C81.5024 54.6904 82.0621 55.25 82.7524 55.25Z" fill="#15141B"/>
<path d="M72.75 60.25C73.4404 60.25 74 59.6904 74 59C74 58.3096 73.4404 57.75 72.75 57.75C72.0596 57.75 71.5 58.3096 71.5 59C71.5 59.6904 72.0596 60.25 72.75 60.25Z" fill="#15141B"/>
<path d="M77.751 60.25C78.4413 60.25 79.001 59.6904 79.001 59C79.001 58.3096 78.4413 57.75 77.751 57.75C77.0606 57.75 76.501 58.3096 76.501 59C76.501 59.6904 77.0606 60.25 77.751 60.25Z" fill="#15141B"/>
<path d="M82.7524 60.25C83.4428 60.25 84.0024 59.6904 84.0024 59C84.0024 58.3096 83.4428 57.75 82.7524 57.75C82.0621 57.75 81.5024 58.3096 81.5024 59C81.5024 59.6904 82.0621 60.25 82.7524 60.25Z" fill="#15141B"/>
<path d="M72.75 65.25C73.4404 65.25 74 64.6904 74 64C74 63.3096 73.4404 62.75 72.75 62.75C72.0596 62.75 71.5 63.3096 71.5 64C71.5 64.6904 72.0596 65.25 72.75 65.25Z" fill="#15141B"/>
<path d="M77.751 65.25C78.4413 65.25 79.001 64.6904 79.001 64C79.001 63.3096 78.4413 62.75 77.751 62.75C77.0606 62.75 76.501 63.3096 76.501 64C76.501 64.6904 77.0606 65.25 77.751 65.25Z" fill="#15141B"/>
<path d="M82.7524 65.25C83.4428 65.25 84.0024 64.6904 84.0024 64C84.0024 63.3096 83.4428 62.75 82.7524 62.75C82.0621 62.75 81.5024 63.3096 81.5024 64C81.5024 64.6904 82.0621 65.25 82.7524 65.25Z" fill="#15141B"/>
<path d="M72.75 70.25C73.4404 70.25 74 69.6904 74 69C74 68.3096 73.4404 67.75 72.75 67.75C72.0596 67.75 71.5 68.3096 71.5 69C71.5 69.6904 72.0596 70.25 72.75 70.25Z" fill="#15141B"/>
<path d="M77.751 70.25C78.4413 70.25 79.001 69.6904 79.001 69C79.001 68.3096 78.4413 67.75 77.751 67.75C77.0606 67.75 76.501 68.3096 76.501 69C76.501 69.6904 77.0606 70.25 77.751 70.25Z" fill="#15141B"/>
<path d="M82.7524 70.25C83.4428 70.25 84.0024 69.6904 84.0024 69C84.0024 68.3096 83.4428 67.75 82.7524 67.75C82.0621 67.75 81.5024 68.3096 81.5024 69C81.5024 69.6904 82.0621 70.25 82.7524 70.25Z" fill="#15141B"/>
<path d="M87.75 49H67.75V74H87.75V49Z" stroke="#B39B84" stroke-width="2.5" stroke-linecap="round" stroke-linejoin="round"/>
<path d="M94 44H34V79H94V44Z" stroke="#B39B84" stroke-width="2.5" stroke-linecap="round" stroke-linejoin="round"/>
<path d="M96.5 39H31.5C30.1193 39 29 40.1193 29 41.5V81.5C29 82.8807 30.1193 84 31.5 84H96.5C97.8807 84 99 82.8807 99 81.5V41.5C99 40.1193 97.8807 39 96.5 39Z" stroke="#15141B" stroke-width="2.5" stroke-linecap="round" stroke-linejoin="round"/>
<path d="M94 84V89H84V84" stroke="#15141B" stroke-width="2.5" stroke-linecap="round" stroke-linejoin="round"/>
<path d="M34 84V89H44V84" stroke="#15141B" stroke-width="2.5" stroke-linecap="round" stroke-linejoin="round"/>
<path d="M48.8975 69C53.0396 69 56.3975 65.6421 56.3975 61.5C56.3975 57.3579 53.0396 54 48.8975 54C44.7553 54 41.3975 57.3579 41.3975 61.5C41.3975 65.6421 44.7553 69 48.8975 69Z" stroke="#B39B84" stroke-width="2.5" stroke-linecap="round" stroke-linejoin="round"/>
<path d="M46.3975 61.5H51.3975" stroke="#B39B84" stroke-width="2.5" stroke-linecap="round" stroke-linejoin="round"/>
</svg>
