<svg width="128" height="128" viewBox="0 0 128 128" fill="none" xmlns="http://www.w3.org/2000/svg">
<path d="M42.5 30H35C32.2386 30 30 32.2386 30 35V85C30 87.7614 32.2386 90 35 90H42.5C45.2614 90 47.5 87.7614 47.5 85V35C47.5 32.2386 45.2614 30 42.5 30Z" stroke="#B39B84" stroke-width="2.5" stroke-linecap="round" stroke-linejoin="round"/>
<path d="M47.5 35H92.5C93.8261 35.0001 95.0978 35.5269 96.0355 36.4645C96.9731 37.4022 97.4999 38.6739 97.5 40V80C97.4999 81.3261 96.9731 82.5978 96.0355 83.5355C95.0978 84.4731 93.8261 84.9999 92.5 85H47.5" stroke="#15141B" stroke-width="2.5" stroke-linecap="round" stroke-linejoin="round"/>
<path d="M90 42.5H55V51.25H90V42.5Z" stroke="#15141B" stroke-width="2.5" stroke-linecap="round" stroke-linejoin="round"/>
<path d="M55 58.75H62.5" stroke="#15141B" stroke-width="2.5" stroke-linecap="round" stroke-linejoin="round"/>
<path d="M68.75 58.75H76.25" stroke="#15141B" stroke-width="2.5" stroke-linecap="round" stroke-linejoin="round"/>
<path d="M82.499 58.75H89.999" stroke="#15141B" stroke-width="2.5" stroke-linecap="round" stroke-linejoin="round"/>
<path d="M55 65H62.5" stroke="#15141B" stroke-width="2.5" stroke-linecap="round" stroke-linejoin="round"/>
<path d="M68.75 65H76.25" stroke="#15141B" stroke-width="2.5" stroke-linecap="round" stroke-linejoin="round"/>
<path d="M82.499 65H89.999" stroke="#15141B" stroke-width="2.5" stroke-linecap="round" stroke-linejoin="round"/>
<path d="M55 71.25H62.5" stroke="#15141B" stroke-width="2.5" stroke-linecap="round" stroke-linejoin="round"/>
<path d="M68.75 71.25H76.25" stroke="#15141B" stroke-width="2.5" stroke-linecap="round" stroke-linejoin="round"/>
<path d="M82.499 71.25H89.999" stroke="#15141B" stroke-width="2.5" stroke-linecap="round" stroke-linejoin="round"/>
<path d="M55 77.5H62.5" stroke="#15141B" stroke-width="2.5" stroke-linecap="round" stroke-linejoin="round"/>
<path d="M68.75 77.5H76.25" stroke="#15141B" stroke-width="2.5" stroke-linecap="round" stroke-linejoin="round"/>
<path d="M82.499 77.5H89.999" stroke="#15141B" stroke-width="2.5" stroke-linecap="round" stroke-linejoin="round"/>
<path d="M38.75 90C38.75 91.9891 39.5402 93.8968 40.9467 95.3033C42.3532 96.7098 44.2609 97.5 46.25 97.5C48.2391 97.5 50.1468 96.7098 51.5533 95.3033C52.9598 93.8968 53.75 91.9891 53.75 90V85" stroke="#B39B84" stroke-width="2.5" stroke-linecap="round" stroke-linejoin="round"/>
</svg>
