<svg width="128" height="128" viewBox="0 0 128 128" fill="none" xmlns="http://www.w3.org/2000/svg">
<path d="M57.4951 43.75C57.4951 45.4076 56.8367 46.9973 55.6646 48.1694C54.4925 49.3415 52.9027 50 51.2451 50C49.5875 50 47.9978 49.3415 46.8257 48.1694C45.6536 46.9973 44.9951 45.4076 44.9951 43.75V41.25C44.9951 39.5924 45.6536 38.0027 46.8257 36.8306C47.9978 35.6585 49.5875 35 51.2451 35C52.9027 35 54.4925 35.6585 55.6646 36.8306C56.8367 38.0027 57.4951 39.5924 57.4951 41.25V43.75Z" stroke="#15141B" stroke-width="2.5" stroke-linecap="round" stroke-linejoin="round"/>
<path d="M40.6948 65L37.5698 73.3124C37.5009 73.5021 37.4786 73.7055 37.5047 73.9056C37.5309 74.1057 37.6047 74.2966 37.72 74.4623C37.8337 74.6291 37.9867 74.7654 38.1655 74.8592C38.3443 74.9529 38.5434 75.0013 38.7453 75H53.6575C54.107 74.9995 54.5474 75.1261 54.9281 75.3651C55.3087 75.6042 55.6141 75.946 55.8088 76.3511C56.0036 76.7562 56.0798 77.2082 56.0288 77.6547C55.9777 78.1013 55.8015 78.5244 55.5203 78.8751L54.9832 79.5501C54.5568 80.0815 54.0164 80.5102 53.4019 80.8045C52.7874 81.0987 52.1146 81.251 51.4333 81.25H51.2453" stroke="#15141B" stroke-width="2.5" stroke-linecap="round" stroke-linejoin="round"/>
<path d="M38.745 81.25H36.5198C35.4806 81.2499 34.4565 81.0015 33.5328 80.5254C32.6092 80.0493 31.8126 79.3593 31.2097 78.513C30.6068 77.6666 30.2149 76.6884 30.0667 75.6599C29.9185 74.6313 30.0182 73.5823 30.3576 72.6001L33.9453 62.1752C34.7937 59.7169 36.3875 57.5843 38.5047 56.0742C40.622 54.5641 43.1574 53.7517 45.758 53.75H56.0705C57.7119 53.7497 59.3372 54.0731 60.8535 54.7016C62.3698 55.3301 63.7473 56.2514 64.9071 57.4127L71.245 63.75L76.7004 58.2953C77.7448 57.2505 78.9849 56.4218 80.3496 55.8564C81.7144 55.291 83.1772 55 84.6545 55H86.1706C86.4839 55 86.7902 55.0928 87.0507 55.2668C87.3112 55.4408 87.5142 55.6882 87.6342 55.9776C87.7541 56.267 87.7856 56.5855 87.7245 56.8927C87.6635 57.2 87.5127 57.4823 87.2913 57.7039L72.495 72.5L62.495 67.5V88.75" stroke="#15141B" stroke-width="2.5" stroke-linecap="round" stroke-linejoin="round"/>
<path d="M38.7451 75V92.5H51.2451V75" stroke="#15141B" stroke-width="2.5" stroke-linecap="round" stroke-linejoin="round"/>
<path d="M97.4951 55H89.9951H69.9951" stroke="#B39B84" stroke-width="2.5" stroke-linecap="round" stroke-linejoin="round"/>
<path d="M72.4951 55V53.75C72.4951 50.7663 73.6804 47.9048 75.7902 45.795C77.9 43.6853 80.7614 42.5 83.7451 42.5C86.7288 42.5 89.5903 43.6853 91.7001 45.795C93.8099 47.9048 94.9951 50.7663 94.9951 53.75V55" stroke="#B39B84" stroke-width="2.5" stroke-linecap="round" stroke-linejoin="round"/>
<path d="M81.4587 47.9334C80.2256 48.4217 79.1785 49.2873 78.4668 50.4065" stroke="#B39B84" stroke-width="2.5" stroke-linecap="round" stroke-linejoin="round"/>
<path d="M83.7451 42.5V40" stroke="#B39B84" stroke-width="2.5" stroke-linecap="round" stroke-linejoin="round"/>
</svg>
