<svg width="128" height="128" viewBox="0 0 128 128" fill="none" xmlns="http://www.w3.org/2000/svg">
<path d="M30 53.75C39.0227 44.9351 51.136 40 63.75 40C76.364 40 88.4773 44.9351 97.5 53.75" stroke="#B39B84" stroke-width="2.5" stroke-linecap="round" stroke-linejoin="round"/>
<path d="M48.5625 72.312C50.5568 70.3174 52.9245 68.7351 55.5304 67.6556C58.1363 66.5761 60.9293 66.0205 63.7499 66.0205C66.5705 66.0205 69.3635 66.5761 71.9693 67.6556C74.5752 68.7351 76.9429 70.3174 78.9373 72.312" stroke="#B39B84" stroke-width="2.5" stroke-linecap="round" stroke-linejoin="round"/>
<path d="M39.1499 62.7856C42.3805 59.5551 46.2157 56.9925 50.4366 55.2441C54.6575 53.4957 59.1815 52.5959 63.7502 52.5959C68.3188 52.5959 72.8428 53.4957 77.0637 55.2441C81.2846 56.9925 85.1198 59.5551 88.3504 62.7856" stroke="#B39B84" stroke-width="2.5" stroke-linecap="round" stroke-linejoin="round"/>
<path d="M63.75 87.5C66.5114 87.5 68.75 85.2614 68.75 82.5C68.75 79.7386 66.5114 77.5 63.75 77.5C60.9886 77.5 58.75 79.7386 58.75 82.5C58.75 85.2614 60.9886 87.5 63.75 87.5Z" stroke="#15141B" stroke-width="2.5" stroke-linecap="round" stroke-linejoin="round"/>
</svg>
