<svg width="128" height="128" viewBox="0 0 128 128" fill="none" xmlns="http://www.w3.org/2000/svg">
<path d="M92.5 39H35C32.2386 39 30 41.2386 30 44V69C30 71.7614 32.2386 74 35 74H92.5C95.2614 74 97.5 71.7614 97.5 69V44C97.5 41.2386 95.2614 39 92.5 39Z" stroke="#15141B" stroke-width="2.5" stroke-linejoin="round"/>
<path d="M70 46.5H57.5" stroke="#B39B84" stroke-width="2.5" stroke-linecap="round" stroke-linejoin="round"/>
<path d="M91.25 74V66.5H36.25V74" stroke="#15141B" stroke-width="2.5" stroke-linecap="round" stroke-linejoin="round"/>
<path d="M63.8121 79C59.3596 82.3972 68.0162 85.7933 63.8121 89" stroke="#B39B84" stroke-width="2.5" stroke-linecap="round" stroke-linejoin="round"/>
<path d="M73.8123 79C69.3604 82.3972 78.0164 85.7933 73.8123 89" stroke="#B39B84" stroke-width="2.5" stroke-linecap="round" stroke-linejoin="round"/>
<path d="M83.8123 79C79.3604 82.3972 88.0164 85.7933 83.8123 89" stroke="#B39B84" stroke-width="2.5" stroke-linecap="round" stroke-linejoin="round"/>
<path d="M43.8118 79C39.36 82.3972 48.016 85.7933 43.8118 89" stroke="#B39B84" stroke-width="2.5" stroke-linecap="round" stroke-linejoin="round"/>
<path d="M53.8118 79C49.36 82.3972 58.016 85.7933 53.8118 89" stroke="#B39B84" stroke-width="2.5" stroke-linecap="round" stroke-linejoin="round"/>
</svg>
